<?xml version="1.0" encoding="UTF-8"?>
<svg xmlns="http://www.w3.org/2000/svg" xmlns:xlink="http://www.w3.org/1999/xlink" width="375px" height="100px" viewBox="0 0 374 100" version="1.1">
<defs>
<filter id="alpha" filterUnits="objectBoundingBox" x="0%" y="0%" width="100%" height="100%">
  <feColorMatrix type="matrix" in="SourceGraphic" values="0 0 0 0 1 0 0 0 0 1 0 0 0 0 1 0 0 0 1 0"/>
</filter>
<mask id="mask0">
  <g filter="url(#alpha)">
<rect x="0" y="0" width="374" height="100" style="fill:rgb(0%,0%,0%);fill-opacity:0.0509804;stroke:none;"/>
  </g>
</mask>
<clipPath id="clip1">
  <rect x="0" y="0" width="374" height="100"/>
</clipPath>
<g id="surface5" clip-path="url(#clip1)">
<path style="fill-rule:nonzero;fill:rgb(1.568627%,0.784314%,1.176471%);fill-opacity:1;stroke-width:0.094;stroke-linecap:butt;stroke-linejoin:miter;stroke:rgb(1.568627%,0.784314%,1.176471%);stroke-opacity:1;stroke-miterlimit:4;" d="M 288.00372 72.997894 L 304.00565 72.997894 L 304.00565 105.007193 L 288.00372 105.007193 Z M 288.00372 72.997894 " transform="matrix(0.260467,0,0,0.261033,-8.4802,-19.043107)"/>
</g>
<mask id="mask1">
  <g filter="url(#alpha)">
<rect x="0" y="0" width="374" height="100" style="fill:rgb(0%,0%,0%);fill-opacity:0.0588235;stroke:none;"/>
  </g>
</mask>
<clipPath id="clip2">
  <rect x="0" y="0" width="374" height="100"/>
</clipPath>
<g id="surface8" clip-path="url(#clip2)">
<path style="fill-rule:nonzero;fill:rgb(1.568627%,1.176471%,1.176471%);fill-opacity:1;stroke-width:0.094;stroke-linecap:butt;stroke-linejoin:miter;stroke:rgb(1.568627%,1.176471%,1.176471%);stroke-opacity:1;stroke-miterlimit:4;" d="M 1052.901991 72.997894 L 1068.993904 72.997894 L 1068.993904 105.007193 C 1063.69992 104.902441 1058.405935 104.797689 1053.201933 104.692936 C 1053.096954 99.395465 1053.006971 94.202745 1053.006971 88.995061 C 1053.006971 83.69759 1052.901991 78.295366 1052.901991 72.997894 Z M 1052.901991 72.997894 " transform="matrix(0.260467,0,0,0.261033,-8.4802,-19.043107)"/>
</g>
<mask id="mask2">
  <g filter="url(#alpha)">
<rect x="0" y="0" width="374" height="100" style="fill:rgb(0%,0%,0%);fill-opacity:0.901961;stroke:none;"/>
  </g>
</mask>
<clipPath id="clip3">
  <rect x="0" y="0" width="374" height="100"/>
</clipPath>
<g id="surface11" clip-path="url(#clip3)">
<path style="fill-rule:nonzero;fill:rgb(26.666667%,21.176471%,24.705882%);fill-opacity:1;stroke-width:0.094;stroke-linecap:butt;stroke-linejoin:miter;stroke:rgb(26.666667%,21.176471%,24.705882%);stroke-opacity:1;stroke-miterlimit:4;" d="M 192.007134 105.007193 L 207.994068 105.007193 L 207.994068 121.004361 L 192.007134 121.004361 Z M 192.007134 105.007193 " transform="matrix(0.260467,0,0,0.261033,-8.4802,-19.043107)"/>
</g>
<mask id="mask3">
  <g filter="url(#alpha)">
<rect x="0" y="0" width="374" height="100" style="fill:rgb(0%,0%,0%);fill-opacity:0.0509804;stroke:none;"/>
  </g>
</mask>
<clipPath id="clip4">
  <rect x="0" y="0" width="374" height="100"/>
</clipPath>
<g id="surface14" clip-path="url(#clip4)">
<path style="fill-rule:nonzero;fill:rgb(1.568627%,1.176471%,1.176471%);fill-opacity:1;stroke-width:0.094;stroke-linecap:butt;stroke-linejoin:miter;stroke:rgb(1.568627%,1.176471%,1.176471%);stroke-opacity:1;stroke-miterlimit:4;" d="M 1084.995834 121.004361 L 1100.997765 121.004361 L 1100.997765 137.001528 L 1084.995834 137.001528 Z M 1084.995834 121.004361 " transform="matrix(0.260467,0,0,0.261033,-8.4802,-19.043107)"/>
</g>
<mask id="mask4">
  <g filter="url(#alpha)">
<rect x="0" y="0" width="374" height="100" style="fill:rgb(0%,0%,0%);fill-opacity:0.901961;stroke:none;"/>
  </g>
</mask>
<clipPath id="clip5">
  <rect x="0" y="0" width="374" height="100"/>
</clipPath>
<g id="surface17" clip-path="url(#clip5)">
<path style="fill-rule:nonzero;fill:rgb(26.666667%,21.176471%,24.705882%);fill-opacity:1;stroke-width:0.094;stroke-linecap:butt;stroke-linejoin:miter;stroke:rgb(26.666667%,21.176471%,24.705882%);stroke-opacity:1;stroke-miterlimit:4;" d="M 734.303107 344.20151 C 739.507109 344.096757 744.696113 344.00697 750.005095 344.00697 L 750.005095 360.004137 L 734.003165 360.004137 C 734.003165 354.706665 734.198127 349.394229 734.303107 344.20151 Z M 734.303107 344.20151 " transform="matrix(0.260467,0,0,0.261033,-8.4802,-19.043107)"/>
</g>
<mask id="mask5">
  <g filter="url(#alpha)">
<rect x="0" y="0" width="374" height="100" style="fill:rgb(0%,0%,0%);fill-opacity:0.2;stroke:none;"/>
  </g>
</mask>
<clipPath id="clip6">
  <rect x="0" y="0" width="374" height="100"/>
</clipPath>
<g id="surface20" clip-path="url(#clip6)">
<path style="fill-rule:nonzero;fill:rgb(5.882353%,4.705882%,5.490196%);fill-opacity:1;stroke-width:0.094;stroke-linecap:butt;stroke-linejoin:miter;stroke:rgb(5.882353%,4.705882%,5.490196%);stroke-opacity:1;stroke-miterlimit:4;" d="M 750.005095 344.00697 L 766.007025 344.00697 L 766.007025 360.004137 L 750.005095 360.004137 Z M 750.005095 344.00697 " transform="matrix(0.260467,0,0,0.261033,-8.4802,-19.043107)"/>
</g>
<mask id="mask6">
  <g filter="url(#alpha)">
<rect x="0" y="0" width="374" height="100" style="fill:rgb(0%,0%,0%);fill-opacity:0.141176;stroke:none;"/>
  </g>
</mask>
<clipPath id="clip7">
  <rect x="0" y="0" width="374" height="100"/>
</clipPath>
<g id="surface23" clip-path="url(#clip7)">
<path style="fill-rule:nonzero;fill:rgb(3.921569%,3.137255%,3.529412%);fill-opacity:1;stroke-width:0.094;stroke-linecap:butt;stroke-linejoin:miter;stroke:rgb(3.921569%,3.137255%,3.529412%);stroke-opacity:1;stroke-miterlimit:4;" d="M 781.993959 344.00697 L 797.995889 344.00697 L 797.995889 360.004137 L 781.993959 360.004137 Z M 781.993959 344.00697 " transform="matrix(0.260467,0,0,0.261033,-8.4802,-19.043107)"/>
</g>
<mask id="mask7">
  <g filter="url(#alpha)">
<rect x="0" y="0" width="374" height="100" style="fill:rgb(0%,0%,0%);fill-opacity:0.0784314;stroke:none;"/>
  </g>
</mask>
<clipPath id="clip8">
  <rect x="0" y="0" width="374" height="100"/>
</clipPath>
<g id="surface26" clip-path="url(#clip8)">
<path style="fill-rule:nonzero;fill:rgb(2.352941%,1.568627%,1.960784%);fill-opacity:1;stroke-width:0.094;stroke-linecap:butt;stroke-linejoin:miter;stroke:rgb(2.352941%,1.568627%,1.960784%);stroke-opacity:1;stroke-miterlimit:4;" d="M 288.00372 360.004137 L 304.00565 360.004137 L 304.00565 376.001304 L 288.00372 376.001304 Z M 288.00372 360.004137 " transform="matrix(0.260467,0,0,0.261033,-8.4802,-19.043107)"/>
</g>
<mask id="mask8">
  <g filter="url(#alpha)">
<rect x="0" y="0" width="374" height="100" style="fill:rgb(0%,0%,0%);fill-opacity:0.109804;stroke:none;"/>
  </g>
</mask>
<clipPath id="clip9">
  <rect x="0" y="0" width="374" height="100"/>
</clipPath>
<g id="surface29" clip-path="url(#clip9)">
<path style="fill-rule:nonzero;fill:rgb(3.137255%,2.352941%,2.745098%);fill-opacity:1;stroke-width:0.094;stroke-linecap:butt;stroke-linejoin:miter;stroke:rgb(3.137255%,2.352941%,2.745098%);stroke-opacity:1;stroke-miterlimit:4;" d="M 1053.006971 360.004137 L 1068.993904 360.004137 L 1068.993904 376.001304 L 1053.006971 376.001304 Z M 1053.006971 360.004137 " transform="matrix(0.260467,0,0,0.261033,-8.4802,-19.043107)"/>
</g>
<mask id="mask9">
  <g filter="url(#alpha)">
<rect x="0" y="0" width="374" height="100" style="fill:rgb(0%,0%,0%);fill-opacity:0.121569;stroke:none;"/>
  </g>
</mask>
<clipPath id="clip10">
  <rect x="0" y="0" width="374" height="100"/>
</clipPath>
<g id="surface32" clip-path="url(#clip10)">
<path style="fill-rule:nonzero;fill:rgb(3.137255%,2.745098%,3.137255%);fill-opacity:1;stroke-width:0.094;stroke-linecap:butt;stroke-linejoin:miter;stroke:rgb(3.137255%,2.745098%,3.137255%);stroke-opacity:1;stroke-miterlimit:4;" d="M 288.00372 376.001304 L 304.00565 376.001304 L 304.00565 391.998472 L 288.00372 391.998472 Z M 288.00372 376.001304 " transform="matrix(0.260467,0,0,0.261033,-8.4802,-19.043107)"/>
</g>
<mask id="mask10">
  <g filter="url(#alpha)">
<rect x="0" y="0" width="374" height="100" style="fill:rgb(0%,0%,0%);fill-opacity:0.0509804;stroke:none;"/>
  </g>
</mask>
<clipPath id="clip11">
  <rect x="0" y="0" width="374" height="100"/>
</clipPath>
<g id="surface35" clip-path="url(#clip11)">
<path style="fill-rule:nonzero;fill:rgb(1.568627%,1.176471%,1.176471%);fill-opacity:1;stroke-width:0.094;stroke-linecap:butt;stroke-linejoin:miter;stroke:rgb(1.568627%,1.176471%,1.176471%);stroke-opacity:1;stroke-miterlimit:4;" d="M 1037.00504 376.001304 L 1053.006971 376.001304 L 1053.006971 391.998472 L 1037.00504 391.998472 Z M 925.996335 391.998472 L 941.998265 391.998472 L 941.998265 407.995639 L 925.996335 407.995639 Z M 925.996335 391.998472 " transform="matrix(0.260467,0,0,0.261033,-8.4802,-19.043107)"/>
</g>
<mask id="mask11">
  <g filter="url(#alpha)">
<rect x="0" y="0" width="374" height="100" style="fill:rgb(0%,0%,0%);fill-opacity:0.160784;stroke:none;"/>
  </g>
</mask>
<clipPath id="clip12">
  <rect x="0" y="0" width="374" height="100"/>
</clipPath>
<g id="surface38" clip-path="url(#clip12)">
<path style="fill-rule:nonzero;fill:rgb(4.705882%,3.529412%,4.313725%);fill-opacity:1;stroke-width:0.094;stroke-linecap:butt;stroke-linejoin:miter;stroke:rgb(4.705882%,3.529412%,4.313725%);stroke-opacity:1;stroke-miterlimit:4;" d="M 878.005541 440.004939 L 894.007471 440.004939 L 894.007471 456.002106 L 878.005541 456.002106 Z M 878.005541 440.004939 " transform="matrix(0.260467,0,0,0.261033,-8.4802,-19.043107)"/>
</g>
</defs>
<g id="surface1">
<path style="fill-rule:nonzero;fill:rgb(29.803922%,23.137255%,27.45098%);fill-opacity:1;stroke-width:0.094;stroke-linecap:butt;stroke-linejoin:miter;stroke:rgb(29.803922%,23.137255%,27.45098%);stroke-opacity:1;stroke-miterlimit:4;" d="M 81.403351 72.997894 L 288.00372 72.997894 L 288.00372 184.99303 L 303.300785 184.99303 C 303.705707 179.905063 303.90067 174.697379 304.200613 169.594447 C 309.404614 169.100615 314.593619 168.906075 319.797621 167.993234 C 319.9026 164.207188 320.202543 156.694954 320.397506 152.998696 L 542.894824 152.998696 C 543.104784 158.296167 543.299747 163.698391 543.599689 168.995863 L 574.898685 168.995863 C 575.093648 174.293335 575.303608 179.695559 575.60355 184.99303 L 591.005595 184.99303 L 591.005595 152.998696 L 701.894324 152.998696 C 702.104284 158.296167 702.299246 163.698391 702.599189 168.995863 L 733.898185 168.995863 C 734.093147 174.293335 734.303107 179.695559 734.603049 184.99303 L 750.005095 184.99303 L 750.005095 137.001528 L 909.994405 137.001528 L 909.994405 72.997894 L 1036.900061 72.997894 C 1037.095023 78.295366 1037.304983 83.69759 1037.604925 88.995061 L 1052.991974 88.995061 C 1052.991974 94.202745 1053.096954 99.395465 1053.201933 104.692936 C 1058.390938 104.797689 1063.69992 104.902441 1068.993904 105.007193 C 1068.993904 110.304665 1069.098884 115.497384 1069.203864 120.705069 C 1074.392868 120.794856 1079.70185 121.004361 1084.995834 121.004361 L 1084.995834 137.001528 L 1165.005486 137.001528 L 1165.005486 184.99303 L 1180.302552 184.99303 C 1180.602494 179.905063 1180.902437 174.697379 1181.202379 169.594447 C 1186.391384 169.100615 1191.595386 168.906075 1196.799387 167.993234 C 1196.904367 164.207188 1197.20431 156.694954 1197.399272 152.998696 L 1308.003056 152.998696 L 1308.003056 184.99303 L 1323.300121 184.99303 C 1323.600064 179.905063 1323.900006 174.697379 1324.199949 169.594447 C 1329.40395 169.100615 1334.592955 168.995863 1339.796957 167.993234 C 1339.901936 164.207188 1340.201879 156.694954 1340.396842 152.998696 L 1371.99578 152.998696 L 1371.99578 72.997894 L 1468.007362 72.997894 L 1468.007362 391.998472 L 1340.006916 391.998472 L 1340.006916 376.001304 L 1324.004986 376.001304 L 1324.004986 360.004137 L 1308.003056 360.004137 L 1308.003056 344.00697 L 1292.001125 344.00697 L 1292.001125 264.993832 L 1259.997264 264.993832 L 1259.997264 281.005964 L 1243.995334 281.005964 L 1243.995334 391.998472 L 1068.993904 391.998472 L 1068.993904 360.004137 L 1053.006971 360.004137 L 1053.006971 376.001304 L 1037.00504 376.001304 L 1037.00504 391.998472 L 925.996335 391.998472 L 925.996335 407.995639 L 909.994405 407.995639 L 909.994405 423.992807 L 894.007471 423.992807 L 894.007471 440.004939 L 878.005541 440.004939 L 878.005541 456.002106 L 797.995889 456.002106 L 797.995889 344.00697 L 781.993959 344.00697 L 781.993959 328.997466 L 766.007025 328.997466 L 766.007025 344.00697 L 750.005095 344.00697 C 744.696113 344.00697 739.507109 344.096757 734.303107 344.20151 C 734.198127 349.394229 734.003165 354.706665 734.003165 360.004137 L 734.003165 376.001304 L 718.001234 376.001304 L 718.001234 391.998472 L 685.997373 391.998472 L 685.997373 456.002106 L 591.005595 456.002106 L 591.005595 360.004137 L 575.003665 360.004137 L 575.003665 376.001304 L 559.001735 376.001304 L 559.001735 391.998472 L 526.997874 391.998472 L 526.997874 456.002106 L 431.001289 456.002106 L 431.001289 391.998472 L 320.00758 391.998472 L 320.00758 376.001304 L 304.00565 376.001304 L 304.00565 360.004137 L 288.00372 360.004137 L 288.00372 391.998472 L 192.007134 391.998472 L 192.007134 281.005964 L 129.00422 281.005964 L 129.00422 391.998472 L 33.007635 391.998472 L 33.007635 121.004361 L 48.3047 121.004361 C 48.694626 115.901429 48.904585 110.693745 49.204528 105.501025 C 54.003607 104.303857 60.497362 106.593442 64.501593 103.60052 C 64.801536 100.098801 65.296441 93.095364 65.506401 89.593646 C 70.605423 89.099814 75.704444 88.905274 80.803466 88.007397 C 80.893449 84.206386 81.193391 76.694152 81.403351 72.997894 M 80.998429 88.995061 L 80.998429 105.007193 L 64.996498 105.007193 L 64.996498 121.004361 L 48.994568 121.004361 L 48.994568 360.004137 L 113.00229 360.004137 L 113.00229 248.996665 L 192.007134 248.996665 L 192.007134 168.995863 L 113.00229 168.995863 L 113.00229 152.998696 L 192.007134 152.998696 L 192.007134 121.004361 L 207.994068 121.004361 L 207.994068 360.004137 L 272.001789 360.004137 L 272.001789 88.995061 L 207.994068 88.995061 L 207.994068 105.007193 L 192.007134 105.007193 L 192.007134 88.995061 L 80.998429 88.995061 M 925.996335 88.995061 L 925.996335 360.004137 L 1037.00504 360.004137 L 1037.00504 344.00697 L 1053.006971 344.00697 L 1053.006971 328.997466 L 1068.993904 328.997466 L 1068.993904 121.004361 L 1053.006971 121.004361 L 1053.006971 105.007193 L 1037.00504 105.007193 L 1037.00504 88.995061 L 925.996335 88.995061 M 1387.99771 88.995061 L 1387.99771 168.995863 L 1340.006916 168.995863 L 1340.006916 184.99303 L 1324.004986 184.99303 L 1324.004986 201.005162 L 1308.003056 201.005162 L 1308.003056 328.997466 L 1324.004986 328.997466 L 1324.004986 344.00697 L 1340.006916 344.00697 L 1340.006916 360.004137 L 1452.005432 360.004137 L 1452.005432 88.995061 L 1387.99771 88.995061 M 766.007025 152.998696 L 766.007025 297.003132 L 781.993959 297.003132 L 781.993959 313.000299 L 797.995889 313.000299 L 797.995889 328.997466 L 829.99975 328.997466 L 829.99975 360.004137 L 813.997819 360.004137 L 813.997819 423.992807 L 878.005541 423.992807 L 878.005541 407.995639 L 894.007471 407.995639 L 894.007471 391.998472 L 909.994405 391.998472 L 909.994405 152.998696 L 846.00168 152.998696 L 846.00168 264.993832 L 829.99975 264.993832 L 829.99975 152.998696 L 766.007025 152.998696 M 1084.995834 152.998696 L 1084.995834 217.00233 L 1149.003556 217.00233 L 1149.003556 152.998696 L 1084.995834 152.998696 M 319.992583 168.995863 L 319.992583 184.99303 L 304.00565 184.99303 L 304.00565 201.005162 L 288.00372 201.005162 L 288.00372 328.997466 L 304.00565 328.997466 L 304.00565 344.00697 L 319.992583 344.00697 L 319.992583 360.004137 L 431.001289 360.004137 L 431.001289 168.995863 L 319.992583 168.995863 M 447.003219 168.995863 L 447.003219 423.992807 L 510.995943 423.992807 L 510.995943 360.004137 L 559.001735 360.004137 L 559.001735 344.00697 L 575.003665 344.00697 L 575.003665 328.997466 L 591.005595 328.997466 L 591.005595 201.005162 L 575.003665 201.005162 L 575.003665 184.99303 L 542.999804 184.99303 L 542.999804 168.995863 L 447.003219 168.995863 M 606.992529 168.995863 L 606.992529 423.992807 L 671.00025 423.992807 L 671.00025 360.004137 L 718.001234 360.004137 L 718.001234 344.00697 L 734.003165 344.00697 L 734.003165 328.997466 L 750.005095 328.997466 L 750.005095 201.005162 L 734.003165 201.005162 L 734.003165 184.99303 L 701.999304 184.99303 L 701.999304 168.995863 L 606.992529 168.995863 M 1196.99435 168.995863 L 1196.99435 184.99303 L 1181.007417 184.99303 L 1181.007417 201.005162 L 1165.005486 201.005162 L 1165.005486 360.004137 L 1228.998211 360.004137 L 1228.998211 248.996665 L 1243.995334 248.996665 L 1243.995334 232.999497 L 1292.001125 232.999497 L 1292.001125 168.995863 L 1196.99435 168.995863 M 1084.995834 232.999497 L 1084.995834 360.004137 L 1149.003556 360.004137 L 1149.003556 232.999497 Z M 1084.995834 232.999497 " transform="matrix(0.260467,0,0,0.261033,-8.4802,-19.043107)"/>
<use xlink:href="#surface5" mask="url(#mask0)"/>
<use xlink:href="#surface8" mask="url(#mask1)"/>
<path style="fill-rule:nonzero;fill:rgb(99.607843%,99.607843%,99.607843%);fill-opacity:1;stroke-width:0.094;stroke-linecap:butt;stroke-linejoin:miter;stroke:rgb(99.607843%,99.607843%,99.607843%);stroke-opacity:1;stroke-miterlimit:4;" d="M 80.998429 88.995061 L 192.007134 88.995061 L 192.007134 152.998696 L 113.00229 152.998696 L 113.00229 168.995863 L 192.007134 168.995863 L 192.007134 248.996665 L 113.00229 248.996665 L 113.00229 360.004137 L 48.994568 360.004137 L 48.994568 121.004361 L 64.996498 121.004361 L 64.996498 105.007193 L 80.998429 105.007193 Z M 80.998429 88.995061 " transform="matrix(0.260467,0,0,0.261033,-8.4802,-19.043107)"/>
<path style="fill-rule:nonzero;fill:rgb(100%,100%,100%);fill-opacity:1;stroke-width:0.094;stroke-linecap:butt;stroke-linejoin:miter;stroke:rgb(100%,100%,100%);stroke-opacity:1;stroke-miterlimit:4;" d="M 207.994068 88.995061 L 272.001789 88.995061 L 272.001789 360.004137 L 207.994068 360.004137 Z M 925.996335 88.995061 L 1037.00504 88.995061 L 1037.00504 105.007193 L 1053.006971 105.007193 L 1053.006971 121.004361 L 1068.993904 121.004361 L 1068.993904 328.997466 L 1053.006971 328.997466 L 1053.006971 344.00697 L 1037.00504 344.00697 L 1037.00504 360.004137 L 925.996335 360.004137 L 925.996335 88.995061 M 988.999249 152.998696 L 988.999249 184.99303 L 1005.00118 184.99303 L 1005.00118 152.998696 L 988.999249 152.998696 M 988.999249 264.993832 L 988.999249 297.003132 L 1005.00118 297.003132 L 1005.00118 264.993832 Z M 1387.99771 88.995061 L 1452.005432 88.995061 L 1452.005432 360.004137 L 1340.006916 360.004137 L 1340.006916 344.00697 L 1324.004986 344.00697 L 1324.004986 328.997466 L 1308.003056 328.997466 L 1308.003056 201.005162 L 1324.004986 201.005162 L 1324.004986 184.99303 L 1340.006916 184.99303 L 1340.006916 168.995863 L 1387.99771 168.995863 L 1387.99771 88.995061 M 1371.99578 232.999497 L 1371.99578 297.003132 L 1387.99771 297.003132 L 1387.99771 232.999497 Z M 1371.99578 232.999497 " transform="matrix(0.260467,0,0,0.261033,-8.4802,-19.043107)"/>
<use xlink:href="#surface11" mask="url(#mask2)"/>
<use xlink:href="#surface14" mask="url(#mask3)"/>
<path style="fill-rule:nonzero;fill:rgb(99.607843%,99.607843%,99.607843%);fill-opacity:1;stroke-width:0.094;stroke-linecap:butt;stroke-linejoin:miter;stroke:rgb(99.607843%,99.607843%,99.607843%);stroke-opacity:1;stroke-miterlimit:4;" d="M 766.007025 152.998696 L 829.99975 152.998696 L 829.99975 264.993832 L 846.00168 264.993832 L 846.00168 152.998696 L 909.994405 152.998696 L 909.994405 391.998472 L 894.007471 391.998472 L 894.007471 407.995639 L 878.005541 407.995639 L 878.005541 423.992807 L 813.997819 423.992807 L 813.997819 360.004137 L 829.99975 360.004137 L 829.99975 328.997466 L 797.995889 328.997466 L 797.995889 313.000299 L 781.993959 313.000299 L 781.993959 297.003132 L 766.007025 297.003132 Z M 766.007025 152.998696 " transform="matrix(0.260467,0,0,0.261033,-8.4802,-19.043107)"/>
<path style="fill-rule:nonzero;fill:rgb(29.803922%,23.137255%,27.45098%);fill-opacity:1;stroke-width:0.094;stroke-linecap:butt;stroke-linejoin:miter;stroke:rgb(29.803922%,23.137255%,27.45098%);stroke-opacity:1;stroke-miterlimit:4;" d="M 988.999249 152.998696 L 1005.00118 152.998696 L 1005.00118 184.99303 L 988.999249 184.99303 Z M 988.999249 152.998696 " transform="matrix(0.260467,0,0,0.261033,-8.4802,-19.043107)"/>
<path style="fill-rule:nonzero;fill:rgb(100%,100%,100%);fill-opacity:1;stroke-width:0.094;stroke-linecap:butt;stroke-linejoin:miter;stroke:rgb(100%,100%,100%);stroke-opacity:1;stroke-miterlimit:4;" d="M 1084.995834 152.998696 L 1149.003556 152.998696 L 1149.003556 217.00233 L 1084.995834 217.00233 Z M 1084.995834 152.998696 " transform="matrix(0.260467,0,0,0.261033,-8.4802,-19.043107)"/>
<path style="fill-rule:nonzero;fill:rgb(99.607843%,99.607843%,99.607843%);fill-opacity:1;stroke-width:0.094;stroke-linecap:butt;stroke-linejoin:miter;stroke:rgb(99.607843%,99.607843%,99.607843%);stroke-opacity:1;stroke-miterlimit:4;" d="M 319.992583 168.995863 L 431.001289 168.995863 L 431.001289 360.004137 L 319.992583 360.004137 L 319.992583 344.00697 L 304.00565 344.00697 L 304.00565 328.997466 L 288.00372 328.997466 L 288.00372 201.005162 L 304.00565 201.005162 L 304.00565 184.99303 L 319.992583 184.99303 L 319.992583 168.995863 M 351.996444 232.999497 L 351.996444 297.003132 L 367.998374 297.003132 L 367.998374 232.999497 Z M 351.996444 232.999497 " transform="matrix(0.260467,0,0,0.261033,-8.4802,-19.043107)"/>
<path style="fill-rule:nonzero;fill:rgb(100%,100%,100%);fill-opacity:1;stroke-width:0.094;stroke-linecap:butt;stroke-linejoin:miter;stroke:rgb(100%,100%,100%);stroke-opacity:1;stroke-miterlimit:4;" d="M 447.003219 168.995863 L 542.999804 168.995863 L 542.999804 184.99303 L 575.003665 184.99303 L 575.003665 201.005162 L 591.005595 201.005162 L 591.005595 328.997466 L 575.003665 328.997466 L 575.003665 344.00697 L 559.001735 344.00697 L 559.001735 360.004137 L 510.995943 360.004137 L 510.995943 423.992807 L 447.003219 423.992807 L 447.003219 168.995863 M 510.995943 232.999497 L 510.995943 297.003132 L 526.997874 297.003132 L 526.997874 232.999497 Z M 510.995943 232.999497 " transform="matrix(0.260467,0,0,0.261033,-8.4802,-19.043107)"/>
<path style="fill-rule:nonzero;fill:rgb(99.607843%,99.607843%,99.607843%);fill-opacity:1;stroke-width:0.094;stroke-linecap:butt;stroke-linejoin:miter;stroke:rgb(99.607843%,99.607843%,99.607843%);stroke-opacity:1;stroke-miterlimit:4;" d="M 606.992529 168.995863 L 701.999304 168.995863 L 701.999304 184.99303 L 734.003165 184.99303 L 734.003165 201.005162 L 750.005095 201.005162 L 750.005095 328.997466 L 734.003165 328.997466 L 734.003165 344.00697 L 718.001234 344.00697 L 718.001234 360.004137 L 671.00025 360.004137 L 671.00025 423.992807 L 606.992529 423.992807 L 606.992529 168.995863 M 671.00025 232.999497 L 671.00025 297.003132 L 685.997373 297.003132 L 685.997373 232.999497 Z M 671.00025 232.999497 " transform="matrix(0.260467,0,0,0.261033,-8.4802,-19.043107)"/>
<path style="fill-rule:nonzero;fill:rgb(100%,100%,100%);fill-opacity:1;stroke-width:0.094;stroke-linecap:butt;stroke-linejoin:miter;stroke:rgb(100%,100%,100%);stroke-opacity:1;stroke-miterlimit:4;" d="M 1196.99435 168.995863 L 1292.001125 168.995863 L 1292.001125 232.999497 L 1243.995334 232.999497 L 1243.995334 248.996665 L 1228.998211 248.996665 L 1228.998211 360.004137 L 1165.005486 360.004137 L 1165.005486 201.005162 L 1181.007417 201.005162 L 1181.007417 184.99303 L 1196.99435 184.99303 Z M 1196.99435 168.995863 " transform="matrix(0.260467,0,0,0.261033,-8.4802,-19.043107)"/>
<path style="fill-rule:nonzero;fill:rgb(29.411765%,23.137255%,27.058824%);fill-opacity:1;stroke-width:0.094;stroke-linecap:butt;stroke-linejoin:miter;stroke:rgb(29.411765%,23.137255%,27.058824%);stroke-opacity:1;stroke-miterlimit:4;" d="M 351.996444 232.999497 L 367.998374 232.999497 L 367.998374 297.003132 L 351.996444 297.003132 Z M 510.995943 232.999497 L 526.997874 232.999497 L 526.997874 297.003132 L 510.995943 297.003132 Z M 671.00025 232.999497 L 685.997373 232.999497 L 685.997373 297.003132 L 671.00025 297.003132 Z M 671.00025 232.999497 " transform="matrix(0.260467,0,0,0.261033,-8.4802,-19.043107)"/>
<path style="fill-rule:nonzero;fill:rgb(100%,100%,100%);fill-opacity:1;stroke-width:0.094;stroke-linecap:butt;stroke-linejoin:miter;stroke:rgb(100%,100%,100%);stroke-opacity:1;stroke-miterlimit:4;" d="M 1084.995834 232.999497 L 1149.003556 232.999497 L 1149.003556 360.004137 L 1084.995834 360.004137 Z M 1084.995834 232.999497 " transform="matrix(0.260467,0,0,0.261033,-8.4802,-19.043107)"/>
<path style="fill-rule:nonzero;fill:rgb(29.411765%,23.137255%,27.058824%);fill-opacity:1;stroke-width:0.094;stroke-linecap:butt;stroke-linejoin:miter;stroke:rgb(29.411765%,23.137255%,27.058824%);stroke-opacity:1;stroke-miterlimit:4;" d="M 1371.99578 232.999497 L 1387.99771 232.999497 L 1387.99771 297.003132 L 1371.99578 297.003132 Z M 1371.99578 232.999497 " transform="matrix(0.260467,0,0,0.261033,-8.4802,-19.043107)"/>
<path style="fill-rule:nonzero;fill:rgb(29.803922%,23.137255%,27.45098%);fill-opacity:1;stroke-width:0.094;stroke-linecap:butt;stroke-linejoin:miter;stroke:rgb(29.803922%,23.137255%,27.45098%);stroke-opacity:1;stroke-miterlimit:4;" d="M 988.999249 264.993832 L 1005.00118 264.993832 L 1005.00118 297.003132 L 988.999249 297.003132 Z M 988.999249 264.993832 " transform="matrix(0.260467,0,0,0.261033,-8.4802,-19.043107)"/>
<use xlink:href="#surface17" mask="url(#mask4)"/>
<use xlink:href="#surface20" mask="url(#mask5)"/>
<use xlink:href="#surface23" mask="url(#mask6)"/>
<use xlink:href="#surface26" mask="url(#mask7)"/>
<use xlink:href="#surface29" mask="url(#mask8)"/>
<use xlink:href="#surface32" mask="url(#mask9)"/>
<use xlink:href="#surface35" mask="url(#mask10)"/>
<use xlink:href="#surface38" mask="url(#mask11)"/>
</g>
</svg>
